<svg width="194" height="40" viewBox="0 0 194 40" fill="none" xmlns="http://www.w3.org/2000/svg">
<path d="M192.432 11.2087L185.02 5.75293H157.597L155.812 11.2087H170.279L162.511 34.7603H168.495L176.236 11.2087H192.432Z" fill="#FCFC03"/>
<path d="M90.0957 5.75293L82.6562 11.2087H110.712L112.523 5.75293H90.0957Z" fill="#FCFC03"/>
<path d="M82.651 11.2087L74.8828 34.7604H80.8669L87.4828 14.6929L82.651 11.2087Z" fill="#FCFC03"/>
<path d="M112.518 5.75293L104.42 30.3039L107.247 30.0878L95.6356 21.418H87.0156L104.227 34.7603H108.922L117.349 9.23705L112.518 5.75293Z" fill="#FCFC03"/>
<path d="M39.7192 19.9865L46.7741 16.5565L49.1898 9.23705L44.3584 5.75293H12.076L4.60938 11.2087H42.5466L40.5427 17.3667H25.3348L23.8525 21.8232H39.0604L34.8054 34.7603L41.9153 31.2762L44.4682 23.5247L39.6917 20.0676L39.7192 19.9865Z" fill="#FCFC03"/>
<path d="M15.343 29.1963L19.7351 15.746L14.8489 12.1538L7.54688 34.7602H34.8057L36.6175 29.1963H15.343Z" fill="#FCFC03"/>
<path d="M58.3646 8.75074L53.5333 5.2666L45.7097 28.9533L45.0234 31.033L50.1568 34.7602H71.8433L73.6821 29.1964H51.6117L58.3646 8.75074Z" fill="#FCFC03"/>
<path d="M124.053 17.5018L125.013 14.6659L120.209 11.2087L117.465 19.4734L122.241 22.9035V22.9306H143.653L141.594 29.1966H114.335L112.523 34.7604H139.755L146.892 31.2763L150.406 20.6348L145.986 17.4477L124.053 17.5018Z" fill="#FCFC03"/>
<path d="M127.623 5.75293L120.211 11.2087H152.85L154.662 5.75293H127.623Z" fill="#FCFC03"/>
</svg>
