<svg width="44" height="48" viewBox="0 0 44 48" fill="none" xmlns="http://www.w3.org/2000/svg">
<path fill-rule="evenodd" clip-rule="evenodd" d="M21.7143 0C20.2597 0 18.935 0.757419 16.2857 2.27226L5.42857 8.48018C2.77924 9.99502 1.45458 10.7524 0.727291 12C0 13.2476 0 14.7624 0 17.7921V30.2079C0 33.2376 0 34.7524 0.727291 36C1.45458 37.2476 2.77924 38.005 5.42857 39.5198L16.2857 45.7277C18.935 47.2426 20.2597 48 21.7143 48C23.1689 48 24.4935 47.2426 27.1429 45.7277L38 39.5198C40.6493 38.005 41.974 37.2476 42.7013 36C43.4286 34.7524 43.4286 33.2376 43.4286 30.2079V17.7921C43.4286 14.7624 43.4286 13.2476 42.7013 12C41.974 10.7524 40.6493 9.99503 38 8.48019L27.1429 2.27226C24.4935 0.75742 23.1689 0 21.7143 0ZM10.3349 27.0954C11.0849 27.6947 11.8054 28.4675 12.5169 29.3345C13.2466 30.2235 13.9723 31.2218 14.7293 32.2682L14.8374 32.4186C14.9223 32.5367 15.0077 32.6555 15.0936 32.7744C14.7192 33.1141 14.4307 33.3076 14.4307 33.3076C13.4966 33.92 12.5129 34.3911 11.4532 34.6537C10.4321 34.9073 9.34715 34.9664 8.17823 34.775C8.76016 33.5792 9.23583 32.3374 9.59713 31.0584C9.9635 29.7625 10.2104 28.4384 10.3349 27.0954ZM11.8287 13.3234C13.0199 13.6171 14.1312 14.1443 15.1898 14.8329C16.0932 15.4216 16.9655 16.1242 17.8089 16.8982C17.9892 17.0633 18.1683 17.2316 18.3464 17.4028C19.3321 18.3535 20.2925 19.3862 21.2643 20.4312L21.4382 20.6182L21.4398 20.6199C22.5051 21.76 23.5889 22.9095 24.7422 23.9795C25.9354 25.086 27.5021 26.1364 28.9351 26.9924C28.9551 27.1559 28.9733 27.3208 28.9929 27.4845C29.2154 29.3406 29.4393 31.2083 30.1338 33.1429C30.905 35.2918 31.9585 37.532 33.3177 39.8914L33.3121 39.8901L33.3134 39.8923C30.6608 39.2839 28.4443 38.4279 26.5457 37.4176C24.7443 36.4574 23.2039 35.3448 21.8467 34.1581C20.545 33.017 19.3893 31.7972 18.3454 30.574C17.397 29.4618 16.5261 28.3417 15.6934 27.2707L15.5288 27.0589C14.6706 25.9594 13.8488 24.915 13.025 23.9959C12.2234 23.1029 11.2427 22.3231 10.4098 21.7377L10.4076 21.7142C10.3968 21.5962 10.3861 21.4783 10.3754 21.3605C10.2516 19.9967 10.1284 18.6391 9.754 17.3176C9.72883 17.2287 9.70317 17.14 9.67702 17.0514C9.28483 15.7232 8.78356 14.4333 8.17823 13.1901C8.20419 13.1859 8.23012 13.1817 8.25601 13.1777C9.52313 12.9803 10.708 13.0474 11.8287 13.3234ZM29.0717 19.8336C29.2954 18.0054 29.7478 16.1411 30.436 14.2247C31.1373 12.2732 32.0937 10.2416 33.3234 8.10769C30.9197 8.65895 28.8986 9.43674 27.1588 10.3599C25.4991 11.2409 24.0761 12.2632 22.8171 13.3577C22.8171 13.3577 22.4457 13.6855 21.9751 14.1997C22.0515 14.2733 22.1279 14.3475 22.2043 14.4217C22.2807 14.4958 22.3571 14.57 22.4335 14.6437C23.4233 15.5999 24.4263 16.5601 25.492 17.4401C26.5911 18.3472 27.7702 19.1831 29.0717 19.8336Z" fill="url(#paint0_linear_3653_61219)"/>
<path d="M10.0876 26.5136L10.5222 26.861C11.2954 27.479 12.0312 28.2696 12.7488 29.1442C12.7488 29.1442 12.7488 29.1442 12.7488 29.1442L10.0876 26.5136ZM10.0876 26.5136L10.0362 27.0677M10.0876 26.5136L10.0362 27.0677M10.0362 27.0677C9.91342 28.3924 9.66985 29.6984 9.30845 30.9768L9.30843 30.9769C8.95205 32.2384 8.48278 33.4636 7.90848 34.6437L7.73219 35.0059L8.12974 35.071C9.33912 35.2691 10.4651 35.2082 11.5254 34.9449C12.6247 34.6724 13.6394 34.1851 14.5952 33.5585L14.5978 33.5567M10.0362 27.0677L14.5978 33.5567M14.5978 33.5567L14.4307 33.3076L14.5978 33.5567ZM15.3533 14.5814L15.3535 14.5816C16.2739 15.1813 17.1592 15.8949 18.0115 16.6769C18.1938 16.8438 18.3747 17.0138 18.5543 17.1866L18.5546 17.1869C19.5462 18.1432 20.5113 19.181 21.4811 20.2237L21.484 20.2269L21.484 20.2269L21.6576 20.4136L21.6579 20.4139L21.659 20.4151C22.7246 21.5555 23.8018 22.6977 24.9462 23.7595L15.3533 14.5814ZM15.3533 14.5814C14.2731 13.8788 13.1311 13.3355 11.9005 13.0322L11.9005 13.0322M15.3533 14.5814L11.9005 13.0322M11.9005 13.0322C10.7417 12.7468 9.51671 12.6777 8.20984 12.8813C8.18316 12.8854 8.15645 12.8897 8.1297 12.8941L7.73213 12.9593L7.9085 13.3215C8.50661 14.5498 9.00184 15.8241 9.3893 17.1364C9.41513 17.2239 9.44048 17.3115 9.46535 17.3994L9.46536 17.3994C9.83086 18.6896 9.9524 20.0192 10.0766 21.3876C10.0873 21.5054 10.098 21.6235 10.1089 21.7417L10.1089 21.7417L10.1111 21.7653L10.1238 21.9034L10.2373 21.9832C11.0605 22.5617 12.0211 23.3266 12.8016 24.1962C13.6175 25.1064 14.4332 26.1429 15.2921 27.2432C15.2922 27.2433 15.2922 27.2434 15.2923 27.2435L15.4566 27.4548L15.4566 27.4548L15.458 27.4566C16.2897 28.5264 17.1642 29.6511 18.1171 30.7686L18.1172 30.7687C19.168 32.0001 20.3338 33.2308 21.649 34.3837L21.6493 34.384C23.0215 35.5838 24.5805 36.7101 26.4046 37.6823L26.4048 37.6824C28.3275 38.7056 30.5688 39.5706 33.2463 40.1847L33.9183 40.3388L33.9172 40.3369L33.9212 40.3378L33.5777 39.7416C32.226 37.3951 31.1804 35.1712 30.4162 33.0416L30.4162 33.0415C29.7348 31.1435 29.5137 29.3084 29.2908 27.4488C29.2823 27.3786 29.2738 27.3043 29.2651 27.2293C29.2545 27.1374 29.2437 27.0443 29.2329 26.9561L29.2152 26.8102M11.9005 13.0322L29.2152 26.8102M29.2152 26.8102L29.089 26.7348M29.2152 26.8102L29.089 26.7348M29.089 26.7348C27.6627 25.8829 26.1168 24.8451 24.9462 23.7596L29.089 26.7348ZM28.9376 20.1019L29.3179 20.292L29.3695 19.87C29.5902 18.066 30.037 16.2235 30.7183 14.3261C31.4128 12.3939 32.3611 10.3784 33.5833 8.25748L33.9267 7.66153L33.2563 7.81528C30.8279 8.37223 28.7819 9.15902 27.0182 10.0948L27.0182 10.0949C25.3358 10.9879 23.8942 12.0238 22.6203 13.1313L22.6186 13.1328L22.8171 13.3577L22.6186 13.1328L22.6185 13.1329L22.6184 13.133L22.6181 13.1333L22.617 13.1342L22.6133 13.1375L22.5996 13.1498C22.5877 13.1605 22.5706 13.176 22.5487 13.1961C22.505 13.2363 22.4421 13.295 22.3644 13.3699C22.2091 13.5196 21.9941 13.7346 21.7538 13.9971L21.5564 14.2127L21.7669 14.4156C21.8428 14.4889 21.9189 14.5627 21.9954 14.6369L21.9967 14.6383C22.0726 14.7119 22.1488 14.7859 22.2251 14.8594C23.2144 15.8152 24.2251 16.783 25.301 17.6714L25.301 17.6715C26.411 18.5876 27.6094 19.4381 28.9376 20.1019ZM16.4346 2.53269C17.7643 1.77239 18.7432 1.2131 19.5708 0.841781C20.3925 0.473162 21.044 0.3 21.7143 0.3C22.3846 0.3 23.0361 0.473162 23.8577 0.841782C24.6854 1.2131 25.6643 1.7724 26.9939 2.53269L37.8511 8.74062C39.1808 9.50093 40.1593 10.0608 40.8978 10.585C41.6309 11.1054 42.1076 11.5772 42.4421 12.1511C42.7766 12.7248 42.9507 13.369 43.0391 14.2575C43.1282 15.1526 43.1286 16.2713 43.1286 17.7921V30.2079C43.1286 31.7287 43.1282 32.8474 43.0391 33.7425C42.9507 34.631 42.7766 35.2752 42.4421 35.8489C42.1076 36.4228 41.6309 36.8946 40.8978 37.415C40.1593 37.9392 39.1808 38.4991 37.8511 39.2594L26.9939 45.4673C25.6642 46.2276 24.6854 46.7869 23.8577 47.1582C23.0361 47.5268 22.3846 47.7 21.7143 47.7C21.044 47.7 20.3925 47.5268 19.5708 47.1582C18.7432 46.7869 17.7643 46.2276 16.4346 45.4673L5.57748 39.2594C4.24777 38.4991 3.26929 37.9392 2.53081 37.415C1.79762 36.8946 1.32102 36.4228 0.986465 35.8489C0.652002 35.2752 0.477864 34.631 0.389436 33.7425C0.300342 32.8474 0.3 31.7287 0.3 30.2079V17.7921C0.3 16.2713 0.300342 15.1526 0.389436 14.2575C0.477864 13.369 0.652002 12.7248 0.986465 12.1511C1.32102 11.5772 1.79762 11.1054 2.53081 10.585C3.26929 10.0608 4.24777 9.50093 5.57748 8.74062L16.4346 2.53269Z" stroke="white" stroke-opacity="0.17" stroke-width="0.6"/>
<defs>
<linearGradient id="paint0_linear_3653_61219" x1="3.8625" y1="8.11364" x2="37.7759" y2="45.2759" gradientUnits="userSpaceOnUse">
<stop stop-color="#8322FF"/>
<stop offset="1" stop-color="white"/>
</linearGradient>
</defs>
</svg>
