<svg width="149" height="24" viewBox="0 0 149 24" fill="none" xmlns="http://www.w3.org/2000/svg">
<path d="M115.11 14.8089H112.529C112.332 14.8089 112.146 14.7275 111.995 14.588C111.855 14.4486 111.774 14.2626 111.762 14.065V13.4722C111.762 13.2745 111.843 13.0886 111.995 12.9491C112.134 12.8096 112.32 12.7282 112.529 12.7282H114.738C114.935 12.7282 115.133 12.6469 115.272 12.5074C115.412 12.3679 115.493 12.1819 115.493 11.9843C115.493 11.7867 115.412 11.6007 115.272 11.4612C115.133 11.3217 114.935 11.2404 114.738 11.2404H112.518C112.32 11.2404 112.134 11.159 111.983 11.0195C111.843 10.88 111.762 10.6941 111.75 10.4965V9.90364C111.75 9.70604 111.832 9.52005 111.983 9.38057C112.122 9.24108 112.308 9.15972 112.518 9.15972H115.04C115.238 9.15972 115.435 9.07835 115.575 8.93887C115.714 8.79938 115.796 8.6134 115.796 8.41579C115.796 8.21819 115.714 8.03221 115.575 7.89272C115.435 7.75324 115.238 7.67188 115.04 7.67188H112.006C111.89 7.67188 111.774 7.70674 111.681 7.77649C111.588 7.84623 111.53 7.95084 111.506 8.06708L109.891 15.5877V15.7388C109.914 15.9132 110.007 16.0759 110.158 16.1805C110.297 16.2967 110.472 16.3432 110.658 16.3316H115.11C115.307 16.3316 115.505 16.2502 115.644 16.1108C115.784 15.9713 115.865 15.7853 115.865 15.5877C115.865 15.3901 115.784 15.2041 115.644 15.0646C115.505 14.9251 115.307 14.8438 115.11 14.8438V14.8089Z" fill="white"/>
<path d="M59.0113 7.69531H58C57.8489 7.69531 57.7094 7.74181 57.5816 7.82318C57.4537 7.90455 57.3607 8.00916 57.291 8.14864L55.0708 13.4259C55.0708 13.4375 55.0708 13.4491 55.0592 13.4607C55.0476 13.4724 55.036 13.4723 55.0243 13.4723C54.9778 13.4723 54.9778 13.4724 54.9778 13.4259L52.7577 8.14864C52.6996 8.00916 52.6182 7.89292 52.502 7.79993C52.3044 7.64882 52.0486 7.84642 52.0021 8.10215L50.3167 15.7041C50.3051 15.7855 50.3167 15.8785 50.3632 15.9482C50.4213 16.0645 50.5143 16.1691 50.6305 16.2388C50.7468 16.3086 50.8863 16.3434 51.0141 16.3434H51.3163C51.5139 16.3318 51.6999 16.2504 51.8394 16.111C51.9789 15.9715 52.0603 15.7855 52.0603 15.5995V10.7175C52.0603 10.7059 52.0603 10.6943 52.0719 10.6826C52.0835 10.671 52.0951 10.671 52.1068 10.671C52.1184 10.671 52.13 10.671 52.1416 10.6826C52.1532 10.6943 52.1533 10.7059 52.1533 10.7175L54.2223 15.8436C54.2804 15.9831 54.3734 16.0993 54.5013 16.1807C54.6291 16.2621 54.7802 16.2969 54.9313 16.2969H55.1289C55.2801 16.2969 55.4195 16.2504 55.5474 16.1691C55.6753 16.0877 55.7683 15.9831 55.838 15.8436L57.907 10.764C57.907 10.7524 57.907 10.7408 57.9187 10.7291C57.9303 10.7175 57.9419 10.7175 57.9535 10.7175C57.9652 10.7175 57.9768 10.7175 57.9884 10.7291C58 10.7408 58 10.7524 58 10.764V15.5995C58 15.7971 58.0814 15.9831 58.2325 16.1226C58.372 16.2621 58.558 16.3434 58.7672 16.3434H59.0694C59.267 16.3434 59.453 16.2621 59.6041 16.1226C59.7436 15.9831 59.825 15.7971 59.8366 15.5995V8.42762C59.8017 8.23001 59.6971 8.04403 59.546 7.91617C59.4065 7.78831 59.2089 7.70694 59.0113 7.69531Z" fill="white"/>
<path d="M82.1563 11.7283H79.9361C79.7501 11.7283 79.5642 11.798 79.4363 11.9375C79.3084 12.0653 79.2271 12.2513 79.2271 12.4257C79.2271 12.6117 79.2968 12.786 79.4363 12.9139C79.5642 13.0417 79.7501 13.1231 79.9361 13.1231H80.343C80.7498 13.1231 81.1566 13.4718 80.9474 13.867C80.6452 14.518 80.0407 14.8667 79.076 14.8667C77.6579 14.8667 76.7977 13.8205 76.7977 12.0305C76.7977 10.2404 77.7043 9.19427 79.076 9.19427C79.3898 9.18264 79.7036 9.24076 79.9942 9.38024C80.2732 9.51973 80.5173 9.72896 80.6917 9.98468C80.773 10.1242 80.8893 10.252 81.0288 10.345C81.1682 10.438 81.331 10.4845 81.5053 10.4845H81.9587C82.0633 10.4961 82.1679 10.4729 82.2609 10.438C82.3539 10.4031 82.4352 10.3334 82.505 10.2637C82.5747 10.1823 82.6096 10.0893 82.6328 9.99631C82.6561 9.8917 82.6445 9.7987 82.6212 9.69409C82.3074 9.04316 81.8076 8.49684 81.1682 8.12487C80.5406 7.75291 79.8083 7.56693 79.076 7.6018C76.7512 7.6018 74.9844 9.24076 74.9844 12.0305C74.9844 14.8202 76.6466 16.4591 79.1225 16.4591C81.3426 16.4591 82.9118 15.0643 82.9118 12.8209V12.4722C82.9118 12.3792 82.9002 12.2746 82.8537 12.1816C82.8188 12.0886 82.7607 12.0072 82.691 11.9375C82.6212 11.8677 82.5399 11.8096 82.4469 11.7748C82.3539 11.7399 82.2609 11.7283 82.1563 11.7283Z" fill="white"/>
<path d="M69.0198 8.19514C68.9733 8.05566 68.8686 7.92779 68.7408 7.8348C68.6129 7.74181 68.4618 7.69531 68.3107 7.69531H66.9972C66.8461 7.69531 66.695 7.74181 66.5671 7.8348C66.4393 7.92779 66.3463 8.04403 66.2882 8.19514L63.7658 15.3554C63.7309 15.4716 63.7193 15.5879 63.7309 15.7041C63.7425 15.8204 63.789 15.9366 63.8588 16.0296C63.9285 16.1226 64.0215 16.2039 64.1261 16.2621C64.2307 16.3202 64.347 16.3434 64.4632 16.3551H64.8701C65.0212 16.3551 65.1723 16.3086 65.3001 16.2156C65.428 16.1226 65.521 16.0063 65.5791 15.8552L65.8813 14.9137C65.9278 14.7742 66.0324 14.6463 66.1603 14.5534C66.2882 14.4604 66.4393 14.4139 66.5904 14.4139H68.6594C68.8105 14.4139 68.9616 14.4604 69.0895 14.5534C69.2174 14.6463 69.3103 14.7626 69.3685 14.9137L69.6707 15.8552C69.7172 15.9947 69.8218 16.1226 69.9497 16.2156C70.0775 16.3086 70.2286 16.3551 70.3797 16.3551H70.7866C70.9028 16.3551 71.0191 16.3202 71.1237 16.2621C71.2283 16.2039 71.3213 16.1226 71.391 16.0296C71.4608 15.9366 71.5072 15.8204 71.5189 15.7041C71.5305 15.5879 71.5305 15.4716 71.484 15.3554L69.0198 8.19514ZM67.7295 12.926H67.5784C67.4622 12.926 67.3459 12.8912 67.2297 12.833C67.1251 12.7749 67.0321 12.6936 66.9623 12.6006C66.8926 12.5076 66.8461 12.3913 66.8345 12.2751C66.8229 12.1589 66.8229 12.0426 66.8693 11.9264L67.6249 9.63649C67.6249 9.62487 67.6249 9.61324 67.6365 9.60162C67.6481 9.59 67.6598 9.59 67.6714 9.59C67.683 9.59 67.6946 9.59 67.7063 9.60162C67.7179 9.61324 67.7179 9.62487 67.7179 9.63649L68.4734 11.9264C68.4967 12.0426 68.4967 12.1589 68.4734 12.2751C68.4502 12.3913 68.4037 12.4959 68.3223 12.6006C68.2526 12.6936 68.1596 12.7749 68.055 12.833C67.9736 12.8795 67.8574 12.9144 67.7295 12.926Z" fill="white"/>
<path d="M88.0143 7.69531H87.6656C87.468 7.69531 87.282 7.77668 87.1309 7.91617C86.9914 8.05565 86.9101 8.24163 86.8984 8.43924V15.6111C86.8984 15.8087 86.9798 15.9947 87.1309 16.1342C87.2704 16.2737 87.4564 16.3551 87.6656 16.3551H88.0143C88.2119 16.3551 88.3979 16.2737 88.549 16.1342C88.6885 15.9947 88.7699 15.8087 88.7815 15.6111V8.43924C88.7699 8.24163 88.6885 8.06727 88.549 7.92779C88.3979 7.7883 88.2119 7.70694 88.0143 7.69531Z" fill="white"/>
<path d="M96.8568 9.18291C97.1939 9.17128 97.531 9.25265 97.8332 9.40375C98.1354 9.56649 98.3912 9.78734 98.5771 10.0779C98.6469 10.2523 98.7631 10.4034 98.9142 10.508C99.0653 10.6126 99.2513 10.6708 99.4373 10.6708H99.786C99.8906 10.6824 99.9953 10.6591 100.088 10.6243C100.181 10.5894 100.263 10.5196 100.332 10.4499C100.402 10.3685 100.437 10.2755 100.46 10.1826C100.483 10.0779 100.472 9.98495 100.449 9.88034C99.9488 8.38086 98.5772 7.54395 96.8103 7.54395C94.4856 7.54395 92.7188 9.13641 92.7188 11.9726C92.7188 14.8088 94.4391 16.4013 96.8103 16.4013C98.6818 16.4013 99.9488 15.4016 100.402 14.1579C100.437 14.0649 100.437 13.9603 100.414 13.8557C100.39 13.7511 100.344 13.6581 100.286 13.5883C100.216 13.507 100.135 13.4488 100.042 13.414C99.9488 13.3791 99.8441 13.3559 99.7395 13.3675H99.3327C99.1467 13.3791 98.9724 13.4488 98.8212 13.5535C98.6701 13.6581 98.5539 13.7976 98.4725 13.9719C98.3098 14.2625 98.0541 14.495 97.7635 14.6461C97.4729 14.8088 97.1358 14.8786 96.7987 14.8669C95.4852 14.8669 94.5786 13.8673 94.5786 12.0307C94.5902 10.1826 95.4968 9.18291 96.8568 9.18291Z" fill="white"/>
<path d="M123.037 7.69531H120.666C120.468 7.69531 120.282 7.77668 120.131 7.91617C119.991 8.05565 119.91 8.24163 119.898 8.43924V15.6111C119.898 15.8087 119.98 15.9947 120.131 16.1342C120.27 16.2737 120.456 16.3551 120.666 16.3551H123.037C125.71 16.3551 127.338 14.7161 127.338 12.0194C127.338 9.33427 125.664 7.69531 123.037 7.69531ZM122.932 14.7626H122.525C122.328 14.7626 122.142 14.6812 121.991 14.5417C121.851 14.4023 121.77 14.2163 121.758 14.0187V9.9852C121.758 9.7876 121.84 9.60162 121.991 9.46213C122.13 9.32265 122.316 9.24128 122.525 9.24128H122.932C124.594 9.24128 125.455 10.0898 125.455 11.9845C125.466 13.8676 124.606 14.7626 122.932 14.7626Z" fill="white"/>
<path d="M136.43 14.8089H133.85C133.652 14.8089 133.466 14.7275 133.315 14.588C133.175 14.4486 133.094 14.2626 133.082 14.065V13.4722C133.082 13.2745 133.164 13.0886 133.315 12.9491C133.454 12.8096 133.64 12.7282 133.85 12.7282H136.07C136.267 12.7282 136.465 12.6469 136.604 12.5074C136.744 12.3679 136.825 12.1819 136.825 11.9843C136.825 11.7867 136.744 11.6007 136.604 11.4612C136.465 11.3217 136.267 11.2404 136.07 11.2404H133.85C133.652 11.2404 133.466 11.159 133.315 11.0195C133.175 10.88 133.094 10.6941 133.082 10.4965V9.90364C133.082 9.70604 133.164 9.52005 133.315 9.38057C133.454 9.24108 133.64 9.15972 133.85 9.15972H136.372C136.57 9.15972 136.767 9.07835 136.907 8.93887C137.046 8.79938 137.127 8.6134 137.127 8.41579C137.127 8.21819 137.046 8.03221 136.907 7.89272C136.767 7.75324 136.57 7.67188 136.372 7.67188H131.978C131.781 7.67188 131.595 7.75324 131.443 7.89272C131.304 8.03221 131.223 8.21819 131.211 8.41579V15.5877C131.211 15.7853 131.292 15.9713 131.443 16.1108C131.583 16.2502 131.769 16.3316 131.978 16.3316H136.43C136.628 16.3316 136.814 16.2502 136.965 16.1108C137.104 15.9713 137.186 15.7853 137.197 15.5877C137.197 15.4947 137.186 15.3901 137.139 15.2971C137.104 15.2041 137.046 15.1227 136.976 15.053C136.907 14.9833 136.825 14.9251 136.732 14.8903C136.628 14.8321 136.535 14.8089 136.43 14.8089Z" fill="white"/>
<path d="M147.856 7.69531H147.508C147.31 7.69531 147.124 7.77668 146.973 7.91617C146.833 8.05565 146.752 8.24163 146.74 8.43924V13.0655C146.74 13.112 146.74 13.112 146.694 13.112H146.647L143.114 8.03241C143.044 7.93942 142.951 7.85805 142.846 7.81155C142.742 7.76506 142.626 7.73019 142.509 7.74181H142.033C141.835 7.74181 141.649 7.82318 141.498 7.96267C141.359 8.10215 141.277 8.28813 141.266 8.48574V15.6576C141.266 15.8552 141.347 16.0412 141.498 16.1807C141.638 16.3202 141.824 16.4015 142.033 16.4015H142.382C142.579 16.4015 142.765 16.3202 142.916 16.1807C143.056 16.0412 143.137 15.8552 143.149 15.6576V10.9732C143.149 10.9616 143.149 10.95 143.16 10.9384C143.172 10.9267 143.184 10.9267 143.195 10.9267H143.242L146.833 16.0063C146.903 16.0993 146.996 16.1807 147.101 16.2272C147.205 16.2737 147.322 16.3086 147.438 16.2969H147.891C148.089 16.2969 148.275 16.2156 148.426 16.0761C148.565 15.9366 148.647 15.7506 148.658 15.553V8.38112C148.623 8.19514 148.53 8.02078 148.391 7.90455C148.228 7.77668 148.042 7.70694 147.856 7.69531Z" fill="white"/>
<path d="M28.4995 6.11413L30.8359 8.86897C31.1032 9.18281 31.3357 9.42691 31.4403 9.57802C32.1377 10.2754 32.5329 11.217 32.5329 12.1934C32.4632 13.3441 31.7193 14.1346 31.0218 14.9831L29.3829 16.901L28.5344 17.9007C28.4995 17.9355 28.4879 17.982 28.4762 18.0285C28.4646 18.075 28.4762 18.1215 28.4995 18.1564C28.5227 18.2029 28.546 18.2378 28.5925 18.261C28.6273 18.2843 28.6738 18.2959 28.7203 18.2959H37.2522C38.5541 18.2959 40.193 19.3885 40.1 21.0507C40.1 21.8063 39.7862 22.5269 39.2515 23.0616C38.7052 23.5963 37.9729 23.8986 37.2057 23.8986H23.8383C22.9549 23.8986 20.5953 23.9915 19.9327 21.9806C19.7932 21.5622 19.77 21.1088 19.8746 20.6788C20.0722 20.0394 20.3744 19.435 20.7696 18.9003C21.4438 17.9007 22.1645 16.9126 22.8852 15.9479C23.8151 14.6809 24.7566 13.4604 25.6981 12.1701C25.733 12.1236 25.7446 12.0771 25.7446 12.019C25.7446 11.9609 25.7214 11.9144 25.6981 11.8679L22.304 7.88095C22.2807 7.8577 22.2575 7.83445 22.2226 7.8112C22.1878 7.79957 22.1529 7.78796 22.118 7.78796C22.0831 7.78796 22.0483 7.79957 22.0134 7.8112C21.9785 7.82282 21.9553 7.84607 21.932 7.88095C21.0254 9.08982 17.0384 14.4484 16.1899 15.541C15.3413 16.622 13.249 16.6918 12.0867 15.541L6.77458 10.2871C6.73971 10.2522 6.69321 10.229 6.64672 10.2173C6.60022 10.2057 6.55373 10.2173 6.50723 10.229C6.46074 10.2522 6.42587 10.2755 6.40262 10.3219C6.37937 10.3568 6.35612 10.4033 6.36774 10.4498V20.5509C6.37937 21.2716 6.17014 21.969 5.75168 22.5618C5.33323 23.1546 4.75204 23.5963 4.06623 23.8404C3.62453 23.9915 3.15957 24.038 2.70625 23.9683C2.25292 23.8986 1.81121 23.7358 1.43925 23.4685C1.05566 23.2011 0.753446 22.8524 0.544217 22.4456C0.334988 22.0387 0.21875 21.5854 0.21875 21.1321V2.96408C0.253621 2.31314 0.486099 1.68545 0.904556 1.16238C1.32301 0.650934 1.88096 0.278971 2.52026 0.104614C3.06658 -0.0348714 3.64778 -0.0348714 4.19409 0.104614C4.74041 0.255724 5.24024 0.534697 5.64707 0.94153L13.8186 8.99683C13.8419 9.02008 13.8767 9.04332 13.9 9.05495C13.9348 9.06657 13.9697 9.06658 14.0046 9.06658C14.0395 9.06658 14.0743 9.05495 14.0976 9.0317C14.1324 9.02007 14.1557 8.99683 14.1789 8.96196L19.9792 1.04614C20.2466 0.720677 20.5837 0.464953 20.9673 0.290596C21.3508 0.116239 21.7693 0.0116252 22.1877 0.0116252H37.2755C37.6939 0.0116252 38.1007 0.104617 38.4727 0.26735C38.8447 0.441708 39.1818 0.685805 39.4607 0.988024C39.7281 1.29024 39.9373 1.65058 40.0535 2.04579C40.1698 2.441 40.2047 2.84784 40.1465 3.25467C40.0419 3.9521 39.6816 4.5914 39.1353 5.04473C38.5889 5.49806 37.8915 5.75379 37.1708 5.74216H28.7203C28.6738 5.74216 28.639 5.75378 28.6041 5.77703C28.5692 5.80028 28.5343 5.83516 28.5227 5.87003C28.4995 5.9049 28.4995 5.9514 28.4995 5.98627C28.4646 6.03276 28.4762 6.07925 28.4995 6.11413Z" fill="white"/>
</svg>
