<svg width="94" height="24" viewBox="0 0 94 24" fill="none" xmlns="http://www.w3.org/2000/svg">
<g clip-path="url(#clip0_3650_54674)">
<mask id="mask0_3650_54674" style="mask-type:luminance" maskUnits="userSpaceOnUse" x="0" y="0" width="25" height="24">
<path d="M24.8737 0.0400391H0.953125V23.9606H24.8737V0.0400391Z" fill="white"/>
</mask>
<g mask="url(#mask0_3650_54674)">
<path d="M23.6003 11.2855C23.6003 17.2546 18.7614 22.0934 12.7923 22.0934C6.82326 22.0934 1.98438 17.2546 1.98438 11.2855C1.98438 5.31642 6.82326 0.477539 12.7923 0.477539C18.7614 0.477539 23.6003 5.31642 23.6003 11.2855Z" fill="white"/>
<path d="M13.0175 0.0404654C6.32969 -0.0153492 0.897737 5.4166 0.953551 12.1044C1.00937 18.5988 6.31573 23.9052 12.8081 23.959C19.496 24.0168 24.9299 18.5829 24.8721 11.8951C24.8182 5.40265 19.5119 0.0962797 13.0175 0.0404654ZM9.44138 5.99269C10.2068 6.96546 10.6653 8.19541 10.6653 9.53091C10.6653 10.6871 10.3224 11.7635 9.7324 12.6625H5.58616L9.44138 5.99269ZM22.0833 14.1396C22.0833 14.1954 22.0535 14.2433 22.0016 14.2652C21.7206 14.3848 20.7936 14.8154 20.4069 15.3516C19.4122 16.737 18.6528 18.9138 16.9544 18.9138H9.8679C7.35827 18.9138 5.25925 16.9224 5.26124 14.2692C5.26124 14.2034 5.31705 14.1496 5.38283 14.1496H8.74168C8.85729 14.1496 8.94899 14.2433 8.94899 14.3569V15.0047C8.94899 15.3496 9.22808 15.6287 9.57291 15.6287H12.1205V14.1456H10.3802C11.3809 12.8778 11.977 11.2771 11.977 9.53488C11.977 7.59138 11.2314 5.81927 10.0114 4.49367C10.749 4.57938 11.4547 4.7269 12.1205 4.92225V4.50962C12.1205 4.08104 12.4673 3.73419 12.8959 3.73419C13.3245 3.73419 13.6713 4.08104 13.6713 4.50962V5.50431C16.0494 6.61462 17.6062 8.45647 17.6062 10.5395C17.6062 11.7616 17.072 12.8997 16.1491 13.8566C15.9717 14.04 15.7264 14.1436 15.4694 14.1436H13.6713V15.6247H15.9278C16.4142 15.6247 17.2873 14.7017 17.7019 14.1456C17.7019 14.1456 17.7199 14.1177 17.7677 14.1037C17.8156 14.0898 21.9119 13.1489 21.9119 13.1489C21.9976 13.125 22.0833 13.1908 22.0833 13.2785V14.1396Z" fill="#0086FF"/>
</g>
<path d="M34.5913 17.1897C33.645 17.1897 32.776 16.9675 31.9843 16.5234C31.1925 16.0792 30.5649 15.4661 30.1015 14.684C29.638 13.8922 29.4062 12.9991 29.4062 12.0046C29.4062 11.0197 29.638 10.1362 30.1015 9.35406C30.5649 8.5623 31.1925 7.94438 31.9843 7.50022C32.776 7.05606 33.645 6.83398 34.5913 6.83398C35.5472 6.83398 36.4162 7.05606 37.1983 7.50022C37.9901 7.94438 38.6129 8.5623 39.0667 9.35406C39.5302 10.1362 39.7619 11.0197 39.7619 12.0046C39.7619 12.9991 39.5302 13.8922 39.0667 14.684C38.6129 15.4661 37.9901 16.0792 37.1983 16.5234C36.4065 16.9675 35.5375 17.1897 34.5913 17.1897ZM34.5913 15.3792C35.1996 15.3792 35.7355 15.244 36.199 14.9736C36.6624 14.6937 37.0245 14.2977 37.2852 13.786C37.5459 13.2742 37.6763 12.6804 37.6763 12.0046C37.6763 11.3287 37.5459 10.7397 37.2852 10.2376C37.0245 9.72582 36.6624 9.33475 36.199 9.06439C35.7355 8.79404 35.1996 8.65886 34.5913 8.65886C33.983 8.65886 33.4423 8.79404 32.9691 9.06439C32.5057 9.33475 32.1436 9.72582 31.8829 10.2376C31.6222 10.7397 31.4919 11.3287 31.4919 12.0046C31.4919 12.6804 31.6222 13.2742 31.8829 13.786C32.1436 14.2977 32.5057 14.6937 32.9691 14.9736C33.4423 15.244 33.983 15.3792 34.5913 15.3792Z" fill="white"/>
<path d="M42.7152 10.2236C42.9759 9.85666 43.3331 9.55253 43.787 9.31118C44.2505 9.06013 44.7766 8.93457 45.3657 8.93457C46.0512 8.93457 46.6691 9.10352 47.2196 9.44151C47.7796 9.77942 48.2189 10.2622 48.5376 10.8899C48.8659 11.5078 49.03 12.2272 49.03 13.0479C49.03 13.8686 48.8659 14.5976 48.5376 15.2349C48.2189 15.8625 47.7796 16.3501 47.2196 16.6977C46.6691 17.0453 46.0512 17.2191 45.3657 17.2191C44.7766 17.2191 44.2552 17.0984 43.8015 16.857C43.3573 16.6156 42.9952 16.3115 42.7152 15.9446V20.9124H40.6875V9.0649H42.7152V10.2236ZM46.9588 13.0479C46.9588 12.5651 46.8575 12.1499 46.6547 11.8023C46.4616 11.445 46.2009 11.1747 45.8726 10.9913C45.5539 10.8078 45.2063 10.7161 44.8298 10.7161C44.4629 10.7161 44.1153 10.8126 43.787 11.0057C43.4683 11.1891 43.2077 11.4595 43.0049 11.8168C42.8117 12.174 42.7152 12.5941 42.7152 13.0769C42.7152 13.5597 42.8117 13.9797 43.0049 14.3369C43.2077 14.6942 43.4683 14.9694 43.787 15.1625C44.1153 15.3459 44.4629 15.4376 44.8298 15.4376C45.2063 15.4376 45.5539 15.3411 45.8726 15.1479C46.2009 14.9548 46.4616 14.6797 46.6547 14.3224C46.8575 13.9652 46.9588 13.5403 46.9588 13.0479Z" fill="white"/>
<path d="M57.8163 12.9031C57.8163 13.1927 57.7969 13.4534 57.7583 13.6851H51.8925C51.9409 14.2645 52.1436 14.7183 52.5009 15.0466C52.8581 15.3749 53.2974 15.539 53.8188 15.539C54.572 15.539 55.1079 15.2156 55.4265 14.5686H57.6135C57.3818 15.3411 56.9376 15.9783 56.2811 16.4804C55.6245 16.9729 54.8182 17.2191 53.8623 17.2191C53.0898 17.2191 52.3946 17.0501 51.7767 16.7122C51.1684 16.3646 50.6904 15.877 50.3428 15.2494C50.0049 14.6218 49.8359 13.8976 49.8359 13.0769C49.8359 12.2465 50.0049 11.5174 50.3428 10.8899C50.6808 10.2622 51.1539 9.77942 51.7622 9.44151C52.3705 9.10352 53.0705 8.93457 53.8623 8.93457C54.6251 8.93457 55.3058 9.09876 55.9044 9.42705C56.5128 9.75534 56.9811 10.2236 57.3094 10.8319C57.6473 11.4306 57.8163 12.1209 57.8163 12.9031ZM55.7162 12.3237C55.7066 11.8023 55.5182 11.3871 55.1513 11.0781C54.7844 10.7595 54.3355 10.6002 53.8044 10.6002C53.3023 10.6002 52.8774 10.7547 52.5298 11.0637C52.1919 11.3629 51.9843 11.783 51.907 12.3237H55.7162Z" fill="white"/>
<path d="M63.3135 8.94922C64.2695 8.94922 65.0419 9.25343 65.6309 9.8617C66.2199 10.4603 66.5144 11.3004 66.5144 12.3819V17.089H64.4868V12.657C64.4868 12.0197 64.3274 11.5322 64.0088 11.1942C63.6902 10.8466 63.2556 10.6728 62.7053 10.6728C62.1453 10.6728 61.7011 10.8466 61.3728 11.1942C61.0541 11.5322 60.8949 12.0197 60.8949 12.657V17.089H58.8672V9.06509H60.8949V10.0645C61.1652 9.7169 61.508 9.44654 61.9231 9.25343C62.348 9.05062 62.8115 8.94922 63.3135 8.94922Z" fill="white"/>
<path d="M71.2044 17.1897C70.4995 17.1897 69.8622 17.069 69.2925 16.8275C68.7325 16.5862 68.2884 16.2386 67.9601 15.7847C67.6318 15.3309 67.4627 14.7951 67.4531 14.1771H69.6256C69.6546 14.5923 69.7994 14.9206 70.0601 15.162C70.3305 15.4033 70.6974 15.5241 71.1609 15.5241C71.634 15.5241 72.0057 15.413 72.2761 15.1909C72.5464 14.9592 72.6816 14.6599 72.6816 14.293C72.6816 13.9936 72.5899 13.7474 72.4064 13.5543C72.223 13.3612 71.9913 13.2115 71.7112 13.1053C71.4409 12.9894 71.0643 12.8639 70.5815 12.7288C69.925 12.5357 69.3891 12.3473 68.9739 12.1639C68.5683 11.9708 68.2159 11.686 67.9166 11.3093C67.6269 10.9231 67.482 10.4114 67.482 9.77414C67.482 9.17549 67.6318 8.65409 67.9311 8.20993C68.2304 7.76575 68.6504 7.4278 69.1911 7.19607C69.7319 6.95468 70.3498 6.83398 71.045 6.83398C72.0878 6.83398 72.9327 7.08985 73.5796 7.6016C74.2362 8.10368 74.5983 8.80858 74.6658 9.71621H72.4354C72.4161 9.36861 72.2665 9.08371 71.9864 8.86167C71.7161 8.62993 71.354 8.51406 70.9001 8.51406C70.5043 8.51406 70.1856 8.61547 69.9443 8.8182C69.7125 9.021 69.5967 9.31544 69.5967 9.70167C69.5967 9.97202 69.6835 10.199 69.8573 10.3824C70.0408 10.5562 70.2629 10.7011 70.5236 10.817C70.794 10.9231 71.1705 11.0487 71.6533 11.1935C72.3099 11.3866 72.8458 11.5797 73.261 11.7728C73.6762 11.9659 74.0334 12.2556 74.3328 12.6418C74.6321 13.0281 74.7817 13.535 74.7817 14.1626C74.7817 14.7033 74.6418 15.2054 74.3617 15.6688C74.0817 16.1323 73.6713 16.5041 73.1306 16.7841C72.5899 17.0545 71.9478 17.1897 71.2044 17.1897Z" fill="white"/>
<path d="M83.4181 12.9031C83.4181 13.1927 83.3983 13.4534 83.3601 13.6851H77.4942C77.5424 14.2645 77.7452 14.7183 78.1025 15.0466C78.4597 15.3749 78.8991 15.539 79.4205 15.539C80.1736 15.539 80.7098 15.2156 81.0285 14.5686H83.2155C82.9834 15.3411 82.5392 15.9783 81.8828 16.4804C81.2264 16.9729 80.4198 17.2191 79.4639 17.2191C78.6914 17.2191 77.9963 17.0501 77.3783 16.7122C76.77 16.3646 76.292 15.877 75.9444 15.2494C75.6065 14.6218 75.4375 13.8976 75.4375 13.0769C75.4375 12.2465 75.6065 11.5174 75.9444 10.8899C76.2823 10.2622 76.7555 9.77942 77.3638 9.44151C77.9721 9.10352 78.6721 8.93457 79.4639 8.93457C80.2267 8.93457 80.9077 9.09876 81.5061 9.42705C82.114 9.75534 82.5829 10.2236 82.9111 10.8319C83.2489 11.4306 83.4181 12.1209 83.4181 12.9031ZM81.3177 12.3237C81.3082 11.8023 81.1199 11.3871 80.7527 11.0781C80.386 10.7595 79.937 10.6002 79.4059 10.6002C78.9038 10.6002 78.479 10.7547 78.1314 11.0637C77.7935 11.3629 77.5859 11.783 77.5087 12.3237H81.3177Z" fill="white"/>
<path d="M84.0859 13.0479C84.0859 12.2368 84.2457 11.5174 84.5643 10.8899C84.8926 10.2622 85.332 9.77942 85.882 9.44151C86.4422 9.10352 87.0653 8.93457 87.7503 8.93457C88.3495 8.93457 88.8708 9.05529 89.3151 9.29664C89.7689 9.53807 90.1304 9.8422 90.4014 10.2091V9.0649H92.443V17.0888H90.4014V15.9156C90.14 16.2922 89.7784 16.606 89.3151 16.857C88.8613 17.0984 88.3344 17.2191 87.736 17.2191C87.0605 17.2191 86.4422 17.0453 85.882 16.6977C85.332 16.3501 84.8926 15.8625 84.5643 15.2349C84.2457 14.5976 84.0859 13.8686 84.0859 13.0479ZM90.4014 13.0769C90.4014 12.5844 90.3045 12.1644 90.1114 11.8168C89.9183 11.4595 89.6576 11.1891 89.3294 11.0057C89.0012 10.8126 88.6483 10.7161 88.2716 10.7161C87.8957 10.7161 87.5477 10.8078 87.229 10.9913C86.9103 11.1747 86.6496 11.445 86.447 11.8023C86.2539 12.1499 86.1577 12.5651 86.1577 13.0479C86.1577 13.5306 86.2539 13.9555 86.447 14.3224C86.6496 14.6797 86.9103 14.9548 87.229 15.1479C87.5572 15.3411 87.9053 15.4376 88.2716 15.4376C88.6483 15.4376 89.0012 15.3459 89.3294 15.1625C89.6576 14.9694 89.9183 14.699 90.1114 14.3514C90.3045 13.9941 90.4014 13.5693 90.4014 13.0769Z" fill="white"/>
</g>
<defs>
<clipPath id="clip0_3650_54674">
<rect width="92.1854" height="24" fill="white" transform="translate(0.953125)"/>
</clipPath>
</defs>
</svg>
