<svg width="18" height="18" viewBox="0 0 18 18" fill="none" xmlns="http://www.w3.org/2000/svg">
<path d="M15.0001 2.625H4.12514C3.90014 2.625 3.67514 2.7 3.52514 2.925L2.40014 4.425C2.02514 4.95 2.40014 5.625 3.00014 5.625H13.8751C14.1001 5.625 14.3251 5.55 14.4751 5.325L15.6001 3.825C15.9751 3.3 15.6001 2.625 15.0001 2.625Z" stroke="white" stroke-miterlimit="10"/>
<path d="M3.00014 7.5H13.8751C14.1001 7.5 14.3251 7.575 14.4751 7.8L15.6001 9.3C15.9751 9.825 15.6001 10.5 15.0001 10.5H4.12514C3.90014 10.5 3.67514 10.425 3.52514 10.2L2.40014 8.7C2.02514 8.175 2.40014 7.5 3.00014 7.5Z" stroke="white" stroke-miterlimit="10"/>
<path d="M15.0001 12.375H4.12514C3.90014 12.375 3.67514 12.45 3.52514 12.675L2.40014 14.175C2.02514 14.7 2.40014 15.375 3.00014 15.375H13.8751C14.1001 15.375 14.3251 15.3 14.4751 15.075L15.6001 13.575C15.9751 13.05 15.6001 12.375 15.0001 12.375Z" stroke="white" stroke-miterlimit="10"/>
</svg>
