<svg width="18" height="18" viewBox="0 0 18 18" fill="none" xmlns="http://www.w3.org/2000/svg">
<path d="M7.83993 2.28742L5.03493 5.78242C4.39743 6.57742 4.62243 7.59742 5.52993 8.04742L8.32743 9.44992C8.69493 9.62992 9.29493 9.62992 9.66243 9.44992L12.4599 8.04742C13.3674 7.58992 13.5924 6.56992 12.9549 5.78242L10.1574 2.28742C9.52743 1.48492 8.47743 1.48492 7.83993 2.28742Z" stroke="white" stroke-miterlimit="10" stroke-linecap="round" stroke-linejoin="round"/>
<path d="M9 1.72485V5.66985" stroke="white" stroke-miterlimit="10" stroke-linecap="round" stroke-linejoin="round"/>
<path d="M5.85156 8.03242L9.00156 5.66992L12.1516 8.03242" stroke="white" stroke-miterlimit="10" stroke-linecap="round" stroke-linejoin="round"/>
<path d="M6.5771 10.8224L7.78459 11.3624C8.55709 11.7074 9.44209 11.7074 10.2221 11.3624L11.4296 10.8224C12.5096 10.3424 13.5071 11.6474 12.7571 12.5624L10.1621 15.7349C9.52459 16.5149 8.48209 16.5149 7.83709 15.7349L5.24959 12.5624C4.4921 11.6474 5.4896 10.3424 6.5771 10.8224Z" stroke="white" stroke-miterlimit="10" stroke-linecap="round" stroke-linejoin="round"/>
</svg>
