<svg width="44" height="48" viewBox="0 0 44 48" fill="none" xmlns="http://www.w3.org/2000/svg">
<path fill-rule="evenodd" clip-rule="evenodd" d="M21.7143 0C20.2597 0 18.935 0.757419 16.2857 2.27226L5.42857 8.48018C2.77924 9.99502 1.45458 10.7524 0.727291 12C0 13.2476 0 14.7624 0 17.7921V30.2079C0 33.2376 0 34.7524 0.727291 36C1.45458 37.2476 2.77924 38.005 5.42857 39.5198L16.2857 45.7277C18.935 47.2426 20.2597 48 21.7143 48C23.1689 48 24.4935 47.2426 27.1429 45.7277L38 39.5198C40.6493 38.005 41.974 37.2476 42.7013 36C43.4286 34.7524 43.4286 33.2376 43.4286 30.2079V17.7921C43.4286 14.7624 43.4286 13.2476 42.7013 12C41.974 10.7524 40.6493 9.99503 38 8.48019L27.1429 2.27226C24.4935 0.75742 23.1689 0 21.7143 0ZM10.3349 27.0954C11.0849 27.6947 11.8054 28.4675 12.5169 29.3345C13.2466 30.2235 13.9723 31.2218 14.7293 32.2682L14.8374 32.4186C14.9223 32.5367 15.0077 32.6555 15.0936 32.7744C14.7192 33.1142 14.4307 33.3076 14.4307 33.3076C13.4966 33.92 12.5129 34.3911 11.4532 34.6537C10.4321 34.9073 9.34715 34.9664 8.17823 34.775C8.76016 33.5792 9.23583 32.3374 9.59713 31.0584C9.9635 29.7625 10.2104 28.4384 10.3349 27.0954ZM11.8287 13.3234C13.0199 13.6171 14.1312 14.1443 15.1898 14.8329C16.0932 15.4216 16.9655 16.1242 17.8089 16.8982C17.9892 17.0633 18.1683 17.2316 18.3464 17.4028C19.3321 18.3535 20.2925 19.3862 21.2643 20.4312L21.4382 20.6182L21.4398 20.6199C22.5051 21.76 23.5889 22.9095 24.7422 23.9795C25.9354 25.086 27.5021 26.1364 28.9351 26.9924C28.9551 27.1559 28.9733 27.3208 28.9929 27.4845C29.2154 29.3406 29.4393 31.2083 30.1338 33.1429C30.905 35.2918 31.9585 37.532 33.3177 39.8914L33.3121 39.8901L33.3134 39.8923C30.6608 39.2839 28.4443 38.4279 26.5457 37.4176C24.7443 36.4574 23.2039 35.3448 21.8467 34.1581C20.545 33.017 19.3893 31.7972 18.3454 30.574C17.397 29.4618 16.5261 28.3417 15.6934 27.2707L15.5288 27.0589C14.6706 25.9594 13.8488 24.915 13.025 23.9959C12.2234 23.1029 11.2427 22.3231 10.4098 21.7377L10.4076 21.7142C10.3968 21.5962 10.3861 21.4783 10.3754 21.3605C10.2516 19.9967 10.1284 18.6391 9.754 17.3176C9.72883 17.2287 9.70317 17.14 9.67702 17.0514C9.28483 15.7232 8.78356 14.4333 8.17823 13.1901C8.20419 13.1859 8.23012 13.1817 8.25601 13.1777C9.52313 12.9803 10.708 13.0474 11.8287 13.3234ZM29.0717 19.8336C29.2954 18.0054 29.7478 16.1411 30.436 14.2247C31.1373 12.2732 32.0937 10.2416 33.3234 8.10769C30.9197 8.65896 28.8986 9.43674 27.1588 10.3599C25.4991 11.2409 24.0761 12.2632 22.8171 13.3577C22.8171 13.3577 22.4457 13.6855 21.9751 14.1997C22.0515 14.2733 22.1279 14.3475 22.2043 14.4217C22.2807 14.4958 22.3571 14.57 22.4335 14.6437C23.4233 15.5999 24.4263 16.5601 25.492 17.4401C26.5911 18.3472 27.7702 19.1831 29.0717 19.8336Z" fill="black"/>
<path d="M15.1898 14.8329C14.1312 14.1443 13.0199 13.6171 11.8287 13.3234C10.708 13.0474 9.52313 12.9803 8.25601 13.1777C8.23012 13.1817 8.20419 13.1859 8.17823 13.1901C8.78356 14.4333 9.28483 15.7232 9.67702 17.0514C9.70317 17.14 9.72883 17.2287 9.754 17.3176C10.1284 18.6391 10.2516 19.9967 10.3754 21.3605C10.3861 21.4783 10.3968 21.5962 10.4076 21.7142L10.4098 21.7377C11.2427 22.3231 12.2234 23.1029 13.025 23.9959C13.8488 24.915 14.6706 25.9594 15.5288 27.0589L15.6934 27.2707C16.5261 28.3417 17.397 29.4618 18.3454 30.574C19.3893 31.7972 20.545 33.017 21.8467 34.1581C23.2039 35.3448 24.7443 36.4574 26.5457 37.4176C28.4443 38.4279 30.6608 39.2839 33.3134 39.8923L33.3121 39.8901L33.3177 39.8914C31.9585 37.532 30.905 35.2918 30.1338 33.1429C29.4393 31.2083 29.2154 29.3406 28.9929 27.4845C28.9733 27.3208 28.9551 27.1559 28.9351 26.9924C27.5021 26.1364 25.9354 25.086 24.7422 23.9795C23.5889 22.9095 22.5051 21.76 21.4398 20.6199L21.4382 20.6182L21.2643 20.4312C20.2925 19.3862 19.3321 18.3535 18.3464 17.4028C18.1683 17.2316 17.9892 17.0633 17.8089 16.8982C16.9655 16.1242 16.0932 15.4216 15.1898 14.8329Z" fill="black"/>
<path d="M12.5169 29.3345C11.8054 28.4675 11.0849 27.6947 10.3349 27.0954C10.2104 28.4384 9.9635 29.7625 9.59713 31.0584C9.23583 32.3374 8.76016 33.5792 8.17823 34.775C9.34715 34.9664 10.4321 34.9073 11.4532 34.6537C12.5129 34.3911 13.4966 33.92 14.4307 33.3076C14.4307 33.3076 14.7192 33.1142 15.0936 32.7744C15.0077 32.6555 14.9223 32.5367 14.8374 32.4186L14.7293 32.2682C13.9723 31.2218 13.2466 30.2235 12.5169 29.3345Z" fill="black"/>
<path d="M30.436 14.2247C29.7478 16.1411 29.2954 18.0054 29.0717 19.8336C27.7702 19.1831 26.5911 18.3472 25.492 17.4401C24.4263 16.5601 23.4233 15.5999 22.4335 14.6437C22.3571 14.57 22.2807 14.4958 22.2043 14.4217C22.1279 14.3475 22.0515 14.2733 21.9751 14.1997C22.4457 13.6855 22.8171 13.3577 22.8171 13.3577C24.0761 12.2632 25.4991 11.2409 27.1588 10.3599C28.8986 9.43674 30.9197 8.65896 33.3234 8.10769C32.0937 10.2416 31.1373 12.2732 30.436 14.2247Z" fill="black"/>
<path fill-rule="evenodd" clip-rule="evenodd" d="M21.7143 0C20.2597 0 18.935 0.757419 16.2857 2.27226L5.42857 8.48018C2.77924 9.99502 1.45458 10.7524 0.727291 12C0 13.2476 0 14.7624 0 17.7921V30.2079C0 33.2376 0 34.7524 0.727291 36C1.45458 37.2476 2.77924 38.005 5.42857 39.5198L16.2857 45.7277C18.935 47.2426 20.2597 48 21.7143 48C23.1689 48 24.4935 47.2426 27.1429 45.7277L38 39.5198C40.6493 38.005 41.974 37.2476 42.7013 36C43.4286 34.7524 43.4286 33.2376 43.4286 30.2079V17.7921C43.4286 14.7624 43.4286 13.2476 42.7013 12C41.974 10.7524 40.6493 9.99503 38 8.48019L27.1429 2.27226C24.4935 0.75742 23.1689 0 21.7143 0ZM10.3349 27.0954C11.0849 27.6947 11.8054 28.4675 12.5169 29.3345C13.2466 30.2235 13.9723 31.2218 14.7293 32.2682L14.8374 32.4186C14.9223 32.5367 15.0077 32.6555 15.0936 32.7744C14.7192 33.1141 14.4307 33.3076 14.4307 33.3076C13.4966 33.92 12.5129 34.3911 11.4532 34.6537C10.4321 34.9073 9.34715 34.9664 8.17823 34.775C8.76016 33.5792 9.23583 32.3374 9.59713 31.0584C9.9635 29.7625 10.2104 28.4384 10.3349 27.0954ZM11.8287 13.3234C13.0199 13.6171 14.1312 14.1443 15.1898 14.8329C16.0932 15.4216 16.9655 16.1242 17.8089 16.8982C17.9892 17.0633 18.1683 17.2316 18.3464 17.4028C19.3321 18.3535 20.2925 19.3862 21.2643 20.4312L21.4382 20.6182L21.4398 20.6199C22.5051 21.76 23.5889 22.9095 24.7422 23.9795C25.9354 25.086 27.5021 26.1364 28.9351 26.9924C28.9551 27.1559 28.9733 27.3208 28.9929 27.4845C29.2154 29.3406 29.4393 31.2083 30.1338 33.1429C30.905 35.2918 31.9585 37.532 33.3177 39.8914L33.3121 39.8901L33.3134 39.8923C30.6608 39.2839 28.4443 38.4279 26.5457 37.4176C24.7443 36.4574 23.2039 35.3448 21.8467 34.1581C20.545 33.017 19.3893 31.7972 18.3454 30.574C17.397 29.4618 16.5261 28.3417 15.6934 27.2707L15.5288 27.0589C14.6706 25.9594 13.8488 24.915 13.025 23.9959C12.2234 23.1029 11.2427 22.3231 10.4098 21.7377L10.4076 21.7142C10.3968 21.5962 10.3861 21.4783 10.3754 21.3605C10.2516 19.9967 10.1284 18.6391 9.754 17.3176C9.72883 17.2287 9.70317 17.14 9.67702 17.0514C9.28483 15.7232 8.78356 14.4333 8.17823 13.1901C8.20419 13.1859 8.23012 13.1817 8.25601 13.1777C9.52313 12.9803 10.708 13.0474 11.8287 13.3234ZM29.0717 19.8336C29.2954 18.0054 29.7478 16.1411 30.436 14.2247C31.1373 12.2732 32.0937 10.2416 33.3234 8.10769C30.9197 8.65895 28.8986 9.43674 27.1588 10.3599C25.4991 11.2409 24.0761 12.2632 22.8171 13.3577C22.8171 13.3577 22.4457 13.6855 21.9751 14.1997C22.0515 14.2733 22.1279 14.3475 22.2043 14.4217C22.2807 14.4958 22.3571 14.57 22.4335 14.6437C23.4233 15.5999 24.4263 16.5601 25.492 17.4401C26.5911 18.3472 27.7702 19.1831 29.0717 19.8336Z" fill="url(#paint0_linear_3669_46743)"/>
<defs>
<linearGradient id="paint0_linear_3669_46743" x1="3.8625" y1="8.11364" x2="37.7759" y2="45.2759" gradientUnits="userSpaceOnUse">
<stop stop-color="#8322FF"/>
<stop offset="1" stop-color="white"/>
</linearGradient>
</defs>
</svg>
