<svg width="31" height="29" viewBox="0 0 31 29" fill="none" xmlns="http://www.w3.org/2000/svg">
<g clip-path="url(#clip0_3664_46743)">
<path d="M24.5 17C24.5 23.627 19.127 29 12.5 29C5.87295 29 0.5 23.627 0.5 17C0.5 10.373 5.87295 5 12.5 5C19.1284 5 24.5 10.373 24.5 17Z" fill="white"/>
<path d="M6.4234 17.4032L6.47516 17.3218L9.59684 12.4383C9.64247 12.3669 9.74972 12.3742 9.78424 12.4519C10.3058 13.6207 10.7558 15.0743 10.5449 15.9792C10.4549 16.3515 10.2084 16.8558 9.93095 17.3218C9.89521 17.3896 9.85576 17.4562 9.81383 17.5203C9.7941 17.5499 9.76081 17.5672 9.72505 17.5672H6.51462C6.42832 17.5672 6.37777 17.4735 6.4234 17.4032Z" fill="#111111"/>
<path d="M20.3337 18.3107V19.0837C20.3337 19.1281 20.3066 19.1675 20.2671 19.1848C20.0255 19.2884 19.1982 19.6681 18.8543 20.1464C17.9764 21.3682 17.3058 23.1152 15.8066 23.1152H9.5521C7.33539 23.1152 5.53906 21.3128 5.53906 19.0886V19.0171C5.53906 18.9579 5.58713 18.9099 5.64632 18.9099H9.13294C9.20197 18.9099 9.25251 18.974 9.24637 19.0418C9.2217 19.2686 9.26362 19.5004 9.37088 19.7112C9.578 20.1317 10.007 20.3943 10.4706 20.3943H12.1967V19.0467H10.4903C10.4028 19.0467 10.351 18.9456 10.4016 18.8741C10.4201 18.8457 10.441 18.8162 10.4632 18.7829C10.6247 18.5536 10.8553 18.1973 11.0846 17.7916C11.2412 17.5179 11.3928 17.2257 11.5149 16.9323C11.5395 16.8793 11.5592 16.825 11.579 16.772C11.6123 16.6783 11.6468 16.5908 11.6714 16.5033C11.6961 16.4293 11.7158 16.3516 11.7356 16.2789C11.7935 16.0298 11.8182 15.766 11.8182 15.4923C11.8182 15.385 11.8132 15.2728 11.8034 15.1656C11.7984 15.0485 11.7836 14.9313 11.7688 14.8142C11.759 14.7106 11.7405 14.6083 11.7208 14.501C11.6961 14.3445 11.6616 14.1891 11.6221 14.0325L11.6086 13.9734C11.579 13.8661 11.5543 13.7638 11.5198 13.6565C11.4224 13.3199 11.3102 12.992 11.1919 12.685C11.1487 12.563 11.0994 12.4458 11.0501 12.3287C10.9773 12.1524 10.9034 11.9921 10.8356 11.8405C10.801 11.7714 10.7714 11.7086 10.7419 11.6444C10.7086 11.5717 10.6741 11.499 10.6395 11.4299C10.6149 11.3769 10.5865 11.3276 10.5668 11.2783L10.356 10.8887C10.3264 10.8357 10.3757 10.7728 10.4336 10.7888L11.7528 11.1464H11.7565C11.759 11.1464 11.7602 11.1476 11.7614 11.1476L11.9353 11.1957L12.1264 11.2499L12.1967 11.2696V10.4855C12.1967 10.107 12.5 9.80005 12.8748 9.80005C13.0622 9.80005 13.2323 9.87649 13.3544 10.001C13.4764 10.1255 13.5528 10.2957 13.5528 10.4855V11.6494L13.6934 11.6888C13.7045 11.6925 13.7156 11.6975 13.7254 11.7049C13.76 11.7308 13.8093 11.769 13.8722 11.8158C13.9215 11.8553 13.9745 11.9034 14.0386 11.9527C14.1656 12.055 14.3172 12.1869 14.4837 12.3386C14.528 12.3768 14.5712 12.4162 14.6107 12.4557C14.8252 12.6554 15.0656 12.8897 15.2949 13.1486C15.359 13.2213 15.4219 13.2953 15.486 13.373C15.5501 13.4519 15.6179 13.5295 15.6771 13.6072C15.7548 13.7108 15.8386 13.818 15.9114 13.9302C15.9459 13.9832 15.9853 14.0375 16.0186 14.0905C16.1123 14.2323 16.1949 14.379 16.2738 14.5257C16.3071 14.5935 16.3416 14.6675 16.3712 14.7402C16.4588 14.9363 16.5278 15.136 16.5722 15.3357C16.5857 15.3789 16.5956 15.4257 16.6005 15.4676V15.4775C16.6153 15.5367 16.6203 15.5996 16.6252 15.6637C16.6449 15.8683 16.6351 16.073 16.5907 16.2789C16.5722 16.3664 16.5475 16.449 16.5179 16.5366C16.4883 16.6204 16.4588 16.7079 16.4205 16.7905C16.3466 16.9619 16.259 17.1333 16.1555 17.2935C16.1222 17.3527 16.0827 17.4156 16.0433 17.4748C16.0001 17.5376 15.9557 17.5968 15.9163 17.6548C15.862 17.7288 15.8041 17.8064 15.7449 17.8755C15.6919 17.9482 15.6377 18.021 15.5785 18.0851C15.4959 18.1825 15.417 18.2749 15.3344 18.3637C15.2851 18.4216 15.232 18.4808 15.1778 18.5338C15.1248 18.593 15.0705 18.646 15.0212 18.6953C14.9386 18.7779 14.8696 18.842 14.8116 18.8951L14.676 19.0196C14.6563 19.0369 14.6304 19.0467 14.6033 19.0467H13.5528V20.3943H14.8745C15.1704 20.3943 15.4515 20.2895 15.6783 20.0971C15.756 20.0293 16.0951 19.7359 16.4957 19.2933C16.5093 19.2785 16.5266 19.2674 16.5463 19.2625L20.1969 18.2071C20.2647 18.1874 20.3337 18.2392 20.3337 18.3107Z" fill="#111111"/>
</g>
<mask id="path-4-outside-1_3664_46743" maskUnits="userSpaceOnUse" x="15.7188" y="0.40625" width="12" height="18" fill="black">
<rect fill="white" x="15.7188" y="0.40625" width="12" height="18"/>
<path d="M26.2532 6.90848C26.2301 6.86097 26.1941 6.8209 26.1494 6.79287C26.1046 6.76484 26.0529 6.74998 26 6.75H23.0694L25.4105 1.80779C25.4308 1.76493 25.44 1.71762 25.4371 1.67027C25.4342 1.62292 25.4194 1.57707 25.394 1.53699C25.3686 1.49691 25.3335 1.4639 25.292 1.44104C25.2504 1.41818 25.2037 1.40621 25.1563 1.40625H20.6563C20.602 1.40624 20.5489 1.42192 20.5034 1.45141C20.4579 1.48089 20.4218 1.52291 20.3996 1.57241L16.7434 9.72866C16.7242 9.7715 16.716 9.81845 16.7196 9.86526C16.7232 9.91207 16.7384 9.95723 16.7639 9.99663C16.7894 10.036 16.8244 10.0684 16.8657 10.0908C16.9069 10.1133 16.9531 10.125 17 10.125H19.7448L18.4127 16.2526C18.3991 16.3148 18.4071 16.3797 18.4352 16.4368C18.4633 16.4939 18.5099 16.5398 18.5675 16.567C18.625 16.5942 18.6901 16.601 18.752 16.5864C18.814 16.5718 18.8691 16.5366 18.9085 16.4866L26.221 7.20537C26.2537 7.16388 26.274 7.11404 26.2797 7.06154C26.2854 7.00905 26.2762 6.95601 26.2532 6.90848Z"/>
</mask>
<path d="M26.2532 6.90848C26.2301 6.86097 26.1941 6.8209 26.1494 6.79287C26.1046 6.76484 26.0529 6.74998 26 6.75H23.0694L25.4105 1.80779C25.4308 1.76493 25.44 1.71762 25.4371 1.67027C25.4342 1.62292 25.4194 1.57707 25.394 1.53699C25.3686 1.49691 25.3335 1.4639 25.292 1.44104C25.2504 1.41818 25.2037 1.40621 25.1563 1.40625H20.6563C20.602 1.40624 20.5489 1.42192 20.5034 1.45141C20.4579 1.48089 20.4218 1.52291 20.3996 1.57241L16.7434 9.72866C16.7242 9.7715 16.716 9.81845 16.7196 9.86526C16.7232 9.91207 16.7384 9.95723 16.7639 9.99663C16.7894 10.036 16.8244 10.0684 16.8657 10.0908C16.9069 10.1133 16.9531 10.125 17 10.125H19.7448L18.4127 16.2526C18.3991 16.3148 18.4071 16.3797 18.4352 16.4368C18.4633 16.4939 18.5099 16.5398 18.5675 16.567C18.625 16.5942 18.6901 16.601 18.752 16.5864C18.814 16.5718 18.8691 16.5366 18.9085 16.4866L26.221 7.20537C26.2537 7.16388 26.274 7.11404 26.2797 7.06154C26.2854 7.00905 26.2762 6.95601 26.2532 6.90848Z" fill="#111111"/>
<path d="M26.2532 6.90848L27.1532 6.47272L27.1529 6.47198L26.2532 6.90848ZM26 6.75V7.75H26.0003L26 6.75ZM23.0694 6.75L22.1657 6.32191L21.4892 7.75H23.0694V6.75ZM25.4105 1.80779L24.507 1.37923L24.5068 1.3797L25.4105 1.80779ZM25.1563 1.40625V2.40625L25.1571 2.40625L25.1563 1.40625ZM20.6563 1.40625L20.6561 2.40625H20.6563V1.40625ZM20.3996 1.57241L19.4872 1.16321L19.4871 1.16336L20.3996 1.57241ZM16.7434 9.72866L17.6558 10.1379L17.6559 10.1377L16.7434 9.72866ZM17 10.125V9.125H16.9999L17 10.125ZM19.7448 10.125L20.722 10.3374L20.9856 9.125H19.7448V10.125ZM18.4127 16.2526L19.3897 16.4661L19.3899 16.4651L18.4127 16.2526ZM18.9085 16.4866L18.123 15.8677L18.1227 15.8681L18.9085 16.4866ZM26.221 7.20537L27.0065 7.82424L27.0068 7.82384L26.221 7.20537ZM27.1529 6.47198C27.0478 6.2555 26.884 6.07298 26.6801 5.94529L25.6187 7.64044C25.5043 7.56882 25.4124 7.46643 25.3535 7.34498L27.1529 6.47198ZM26.6801 5.94529C26.4761 5.81761 26.2404 5.74993 25.9997 5.75L26.0003 7.75C25.8654 7.75004 25.7331 7.71207 25.6187 7.64044L26.6801 5.94529ZM26 5.75H23.0694V7.75H26V5.75ZM23.9732 7.17809L26.3142 2.23588L24.5068 1.3797L22.1657 6.32191L23.9732 7.17809ZM26.314 2.23635C26.4067 2.041 26.4484 1.82538 26.4352 1.60957L24.4389 1.73097C24.4316 1.60986 24.455 1.48886 24.507 1.37923L26.314 2.23635ZM26.4352 1.60957C26.4221 1.39376 26.3546 1.18478 26.2389 1.00211L24.5491 2.07187C24.4842 1.96936 24.4463 1.85208 24.4389 1.73097L26.4352 1.60957ZM26.2389 1.00211C26.1233 0.819431 25.9633 0.66899 25.7739 0.564802L24.8101 2.31727C24.7038 2.2588 24.614 2.17438 24.5491 2.07187L26.2389 1.00211ZM25.7739 0.564802C25.5844 0.460615 25.3717 0.406071 25.1555 0.40625L25.1571 2.40625C25.0358 2.40635 24.9164 2.37574 24.8101 2.31727L25.7739 0.564802ZM25.1563 0.40625H20.6563V2.40625H25.1563V0.40625ZM20.6564 0.40625C20.4093 0.406212 20.1674 0.477651 19.96 0.611959L21.0468 2.29085C20.9305 2.3662 20.7948 2.40627 20.6561 2.40625L20.6564 0.40625ZM19.96 0.611959C19.7525 0.746268 19.5883 0.937712 19.4872 1.16321L21.3121 1.98161C21.2553 2.10811 21.1632 2.21551 21.0468 2.29085L19.96 0.611959ZM19.4871 1.16336L15.8309 9.31961L17.6559 10.1377L21.3121 1.98147L19.4871 1.16336ZM15.8309 9.31946C15.7434 9.51459 15.7061 9.72851 15.7225 9.94174L17.7166 9.78878C17.7258 9.9084 17.7049 10.0284 17.6558 10.1379L15.8309 9.31946ZM15.7225 9.94174C15.7389 10.155 15.8083 10.3607 15.9246 10.5402L17.6033 9.45306C17.6685 9.55375 17.7075 9.66916 17.7166 9.78878L15.7225 9.94174ZM15.9246 10.5402C16.0408 10.7197 16.2001 10.8672 16.388 10.9694L17.3433 9.21229C17.4487 9.2696 17.5381 9.35237 17.6033 9.45306L15.9246 10.5402ZM16.388 10.9694C16.5759 11.0715 16.7864 11.125 17.0002 11.125L16.9999 9.125C17.1199 9.12498 17.2379 9.15499 17.3433 9.21229L16.388 10.9694ZM17 11.125H19.7448V9.125H17V11.125ZM18.7676 9.91257L17.4356 16.0402L19.3899 16.4651L20.722 10.3374L18.7676 9.91257ZM17.4358 16.0392C17.3739 16.3224 17.4099 16.6183 17.5379 16.8784L19.3324 15.9953C19.4042 16.1412 19.4244 16.3072 19.3897 16.4661L17.4358 16.0392ZM17.5379 16.8784C17.666 17.1385 17.8784 17.3476 18.1406 17.4713L18.9943 15.6627C19.1414 15.7321 19.2606 15.8493 19.3324 15.9953L17.5379 16.8784ZM18.1406 17.4713C18.4028 17.5951 18.6992 17.6262 18.9814 17.5597L18.5226 15.6131C18.6809 15.5758 18.8472 15.5932 18.9943 15.6627L18.1406 17.4713ZM18.9814 17.5597C19.2636 17.4932 19.5149 17.333 19.6942 17.1052L18.1227 15.8681C18.2234 15.7403 18.3643 15.6504 18.5226 15.6131L18.9814 17.5597ZM19.694 17.1055L27.0065 7.82424L25.4355 6.5865L18.123 15.8677L19.694 17.1055ZM27.0068 7.82384C27.1554 7.63501 27.248 7.4082 27.2739 7.16929L25.2855 6.9538C25.3 6.81988 25.3519 6.69275 25.4352 6.5869L27.0068 7.82384ZM27.2739 7.16929C27.2997 6.93039 27.2579 6.68901 27.1532 6.47272L25.3531 7.34425C25.2944 7.22301 25.271 7.08771 25.2855 6.9538L27.2739 7.16929Z" fill="white" mask="url(#path-4-outside-1_3664_46743)"/>
<defs>
<clipPath id="clip0_3664_46743">
<rect width="24" height="24" fill="white" transform="translate(0.5 5)"/>
</clipPath>
</defs>
</svg>
